/* XPM */
static char * C:\Users\usuario\Desktop\angel_xpm[] = {
"32 32 283 2",
"  	c None",
". 	c #4B745D",
"+ 	c #76806E",
"@ 	c #647F66",
"# 	c #75846F",
"$ 	c #868973",
"% 	c #908E74",
"& 	c #8E8E73",
"* 	c #918E74",
"= 	c #878A72",
"- 	c #79866F",
"; 	c #728567",
"> 	c #79816F",
", 	c #4A745C",
"' 	c #8F936F",
") 	c #B6AF79",
"! 	c #74836C",
"~ 	c #627968",
"{ 	c #48755A",
"] 	c #51765F",
"^ 	c #707E6B",
"/ 	c #959872",
"( 	c #C5BA7A",
"_ 	c #8F946F",
": 	c #8A906F",
"< 	c #B8B179",
"[ 	c #909570",
"} 	c #888B70",
"| 	c #707F6C",
"1 	c #577861",
"2 	c #4E775B",
"3 	c #4B775A",
"4 	c #51775D",
"5 	c #5F7A65",
"6 	c #7E8570",
"7 	c #878D6F",
"8 	c #AEA976",
"9 	c #C2B87A",
"0 	c #8B926E",
"a 	c #767E70",
"b 	c #798A68",
"c 	c #879071",
"d 	c #929475",
"e 	c #999775",
"f 	c #9A9874",
"g 	c #9A9875",
"h 	c #949575",
"i 	c #8D9372",
"j 	c #7A8A68",
"k 	c #747C70",
"l 	c #5C696E",
"m 	c #576F64",
"n 	c #D39B90",
"o 	c #807774",
"p 	c #607365",
"q 	c #CE988F",
"r 	c #FEB19D",
"s 	c #DFA193",
"t 	c #737072",
"u 	c #827676",
"v 	c #DA9F92",
"w 	c #FEB29D",
"x 	c #FFB29D",
"y 	c #EBA797",
"z 	c #9B827C",
"A 	c #B18B84",
"B 	c #F2AB99",
"C 	c #FBB09C",
"D 	c #DB9F92",
"E 	c #9F847D",
"F 	c #8D7D76",
"G 	c #DDA093",
"H 	c #ECA898",
"I 	c #C19389",
"J 	c #7B7673",
"K 	c #AD8982",
"L 	c #F5AD9A",
"M 	c #FDB19C",
"N 	c #FBAF9C",
"O 	c #F4AC9A",
"P 	c #AB8981",
"Q 	c #C5948A",
"R 	c #E6A496",
"S 	c #DF9F93",
"T 	c #A68581",
"U 	c #B98F85",
"V 	c #FCB09C",
"W 	c #D69C93",
"X 	c #F6AD9B",
"Y 	c #E4A396",
"Z 	c #F7AE9B",
"` 	c #B98D8C",
" .	c #C89690",
"..	c #B28A8B",
"+.	c #FEB29C",
"@.	c #E8A696",
"#.	c #837977",
"$.	c #D19991",
"%.	c #B88C8C",
"&.	c #AF8889",
"*.	c #EDA998",
"=.	c #F8AE9B",
"-.	c #EAA798",
";.	c #F4A486",
">.	c #FB9476",
",.	c #FB9577",
"'.	c #F6A88E",
").	c #F8AF9B",
"!.	c #8B757C",
"~.	c #BC9187",
"{.	c #FBAF98",
"].	c #F3A183",
"^.	c #F2A082",
"/.	c #F8AC93",
"(.	c #F9AF9B",
"_.	c #FAAF9C",
":.	c #F8AD94",
"<.	c #FB8D6C",
"[.	c #FF8A6A",
"}.	c #F29F80",
"|.	c #FCB19C",
"1.	c #9B7980",
"2.	c #D29B90",
"3.	c #FEB19C",
"4.	c #F79777",
"5.	c #F69371",
"6.	c #FBB099",
"7.	c #EBA798",
"8.	c #E6A597",
"9.	c #FDB19B",
"0.	c #F49D7D",
"a.	c #F3916D",
"b.	c #F49776",
"c.	c #F9AD95",
"d.	c #F2AB9A",
"e.	c #727673",
"f.	c #C1938A",
"g.	c #FCB09A",
"h.	c #F79574",
"i.	c #FE8A6A",
"j.	c #FD8B6A",
"k.	c #F59E80",
"l.	c #B77771",
"m.	c #BB7771",
"n.	c #E1A294",
"o.	c #DC9F92",
"p.	c #957F7C",
"q.	c #FAB09C",
"r.	c #F9A98F",
"s.	c #F8AA90",
"t.	c #FEB19B",
"u.	c #CE968E",
"v.	c #EE846A",
"w.	c #F9886A",
"x.	c #B48481",
"y.	c #97807D",
"z.	c #C09289",
"A.	c #FDB19D",
"B.	c #CD968E",
"C.	c #F0846A",
"D.	c #B97B75",
"E.	c #BE908A",
"F.	c #C1928A",
"G.	c #E5A495",
"H.	c #CF7C6E",
"I.	c #F7876A",
"J.	c #AD7B7A",
"K.	c #B98E89",
"L.	c #748A89",
"M.	c #859299",
"N.	c #54737C",
"O.	c #9A7F7F",
"P.	c #CB958C",
"Q.	c #B6847F",
"R.	c #E8A595",
"S.	c #8D7D79",
"T.	c #9FA7A6",
"U.	c #D6CFCB",
"V.	c #DAD5CF",
"W.	c #F2E9E0",
"X.	c #B1B3B5",
"Y.	c #90A19A",
"Z.	c #E3DDD6",
"`.	c #C4C2BF",
" +	c #BAB8B9",
".+	c #7E9091",
"++	c #8E7D7B",
"@+	c #BE8F89",
"#+	c #D69E91",
"$+	c #F1AA99",
"%+	c #F3AB9A",
"&+	c #F3AB99",
"*+	c #E5A597",
"=+	c #D19A91",
"-+	c #B68A89",
";+	c #7E7378",
">+	c #9AA5A2",
",+	c #FBF0E5",
"'+	c #FFF3E8",
")+	c #ECE3DC",
"!+	c #CECBC9",
"~+	c #6E8783",
"{+	c #798E8C",
"]+	c #E3DCD6",
"^+	c #F8EDE4",
"/+	c #F6EBE2",
"(+	c #99A2A4",
"_+	c #9E7F82",
":+	c #C69490",
"<+	c #C1938F",
"[+	c #CC9790",
"}+	c #DC9E93",
"|+	c #E1A295",
"1+	c #EEA999",
"2+	c #9D847C",
"3+	c #CAC9C4",
"4+	c #E5DED8",
"5+	c #D1CECC",
"6+	c #EBE2DB",
"7+	c #A9AEB2",
"8+	c #45736C",
"9+	c #356868",
"0+	c #809099",
"a+	c #D5D0CD",
"b+	c #E9E1DB",
"c+	c #E2DCD7",
"d+	c #D5D2CD",
"e+	c #7F7776",
"f+	c #D29890",
"g+	c #717472",
"h+	c #C6C4C0",
"i+	c #F9EEE4",
"j+	c #9DA4AB",
"k+	c #A8ADB0",
"l+	c #7D8E92",
"m+	c #8D9B9B",
"n+	c #C7C5C3",
"o+	c #96A0AA",
"p+	c #E8E1DB",
"q+	c #D7D4D0",
"r+	c #CD978D",
"s+	c #C5918D",
"t+	c #A78384",
"u+	c #B88E88",
"v+	c #A68284",
"w+	c #6F848A",
"x+	c #9DA9A3",
"y+	c #5B7C79",
"z+	c #BCBDBA",
"A+	c #8D9A9A",
"B+	c #DA9F94",
"C+	c #81727A",
"D+	c #A48582",
"E+	c #49735F",
"F+	c #676E72",
"G+	c #636A70",
"H+	c #D89E94",
"I+	c #D99F95",
"J+	c #C39794",
"K+	c #BAA4A4",
"L+	c #B4B1B4",
"M+	c #98838A",
"N+	c #7E7675",
"O+	c #919CA6",
"P+	c #CAC8C7",
"Q+	c #E4DDD7",
"R+	c #EBE3DC",
"S+	c #B2ACAE",
"T+	c #ECA999",
"U+	c #DFA194",
"V+	c #747275",
"W+	c #CE9992",
"X+	c #BC9695",
"Y+	c #777E87",
"Z+	c #67736D",
"`+	c #C3938B",
" @	c #DDA194",
".@	c #69776C",
"+@	c #A78682",
"@@	c #E0A294",
"#@	c #5B6F6C",
"$@	c #7D7A73",
"%@	c #96857B",
"                . + @ # $ % & * = - ; > ,                       ",
"              ' ) ! ~ {           ] ^ / ( _                     ",
"              : < [ } | 1 2 3 4 5 6 7 8 9 0                     ",
"                  a b c d e f g h i j k                         ",
"                                                                ",
"                            l                                   ",
"                          m n o                                 ",
"                        p q r s t                               ",
"                      u v w x x y z                             ",
"                    A B x x x x x C D E                         ",
"                F G r x x x x x x x x r H I J                   ",
"              K L x x x x x x x x x M N x x O P                 ",
"            Q r x x x x x x x w M x R S x x x C T               ",
"          U r x V W r X Y x x Z `  ...O x +.x x @.              ",
"        #.X x x w $.%.&.*.x x x =.-.=.+.;.>.,.'.).!.            ",
"        ~.x {.].^./.(._.x x x x x x x :.<.[.[.}.|.1.            ",
"        2.3.4.[.[.5.6.x x x 7.8.w x x 9.0.a.b.c.d.e.            ",
"        f.g.h.i.j.k.3.x x y l.m.n.x x x +.9.3.x o.              ",
"        p.q.{.r.s.t.x x x u.v.w.x.r x x x x x C y.              ",
"          z.A.x x x x x x B.C.i.D.M x x x x M E.                ",
"            F._.x x x x x G.H.I.J.A.x x x (.K.      L.M.        ",
"      N.      O.D V x x x r P.Q.R.x w =.n S.  T.U.V.W.X.        ",
"      Y.Z.`. +.+  ++@+#+$+%+O &+*+=+-+;+    >+,+'+)+!+~+        ",
"      {+]+^+'+/+(+      _+:+<+[+}+|+1+2+    3+4+5+6+7+8+        ",
"      9+0+a+b+c+d+    e+B x x x x r f+*.g+  h+i+j+k+l+          ",
"        m+n+o+p+q+    r+s+M x x x w t+u+v+  w+x+                ",
"            y+z+A+    B+C+V x x w B D+E+                        ",
"                      F+G+H+I+J+K+L+M+N+                        ",
"                          O+P+Q+R+S+T+U+                        ",
"                          V+W+X+Y+Z+`+ @.@                      ",
"                            +@O @@#@                            ",
"                              $@%@                              "};
