/* XPM */
static char * C:\Users\usuario\Desktop\cannibal_xpm[] = {
"32 32 408 2",
"  	c None",
". 	c #407B40",
"+ 	c #A99FA4",
"@ 	c #518B39",
"# 	c #4C8B2E",
"$ 	c #3E7841",
"% 	c #CAACA9",
"& 	c #95A2A7",
"* 	c #619934",
"= 	c #599D10",
"- 	c #447746",
"; 	c #57961F",
"> 	c #316740",
", 	c #6C444D",
"' 	c #C78B87",
") 	c #CED1D3",
"! 	c #60797D",
"~ 	c #6BA331",
"{ 	c #5B9E10",
"] 	c #509123",
"^ 	c #5B903F",
"/ 	c #5C9E13",
"( 	c #3D7736",
"_ 	c #BF5955",
": 	c #D9D5D4",
"< 	c #99A5AA",
"[ 	c #3E6E44",
"} 	c #70A831",
"| 	c #5D9F14",
"1 	c #599C12",
"2 	c #3C7635",
"3 	c #3B6C48",
"4 	c #6BA333",
"5 	c #5C9F11",
"6 	c #478433",
"7 	c #366744",
"8 	c #2F604B",
"9 	c #B53C41",
"0 	c #D1BAB7",
"a 	c #A9B2B7",
"b 	c #437543",
"c 	c #72AA32",
"d 	c #5F9E1A",
"e 	c #5B9F0D",
"f 	c #488530",
"g 	c #4F8144",
"h 	c #6DA52E",
"i 	c #5B9F0F",
"j 	c #4E8F26",
"k 	c #417344",
"l 	c #659B3B",
"m 	c #41734C",
"n 	c #84959A",
"o 	c #5B7577",
"p 	c #9C3E44",
"q 	c #C88A85",
"r 	c #B8BFC3",
"s 	c #88989E",
"t 	c #4C7B54",
"u 	c #63A120",
"v 	c #55971C",
"w 	c #2B5F44",
"x 	c #60953F",
"y 	c #6CA52C",
"z 	c #5B9E0E",
"A 	c #54961E",
"B 	c #487A43",
"C 	c #6EA536",
"D 	c #6BA238",
"E 	c #728990",
"F 	c #DDE1DF",
"G 	c #CBCFD1",
"H 	c #76898F",
"I 	c #794348",
"J 	c #C54C4A",
"K 	c #D7CECC",
"L 	c #DDDDDE",
"M 	c #9CACAA",
"N 	c #6CA33E",
"O 	c #649E2B",
"P 	c #529224",
"Q 	c #51882C",
"R 	c #41624C",
"S 	c #608448",
"T 	c #608A3E",
"U 	c #518B2B",
"V 	c #4F8F28",
"W 	c #487A44",
"X 	c #73AB32",
"Y 	c #5D9240",
"Z 	c #9DAAAE",
"` 	c #DDE0DB",
" .	c #B5B8B4",
"..	c #7A8586",
"+.	c #B43A3E",
"@.	c #C29593",
"#.	c #C2C6C9",
"$.	c #A5AAAE",
"%.	c #567268",
"&.	c #79643A",
"*.	c #8E5B2F",
"=.	c #955B24",
"-.	c #9B5C1E",
";.	c #9E5D1C",
">.	c #9A5C1E",
",.	c #8E5A2A",
"'.	c #7A583A",
").	c #7E573A",
"!.	c #697143",
"~.	c #65963E",
"{.	c #70A834",
"].	c #4A7D46",
"^.	c #5C7275",
"/.	c #919697",
"(.	c #848786",
"_.	c #4C6769",
":.	c #874246",
"<.	c #814C48",
"[.	c #925C33",
"}.	c #9A5C20",
"|.	c #905A28",
"1.	c #9F5D19",
"2.	c #A05D18",
"3.	c #9F5D18",
"4.	c #9E5D19",
"5.	c #865B31",
"6.	c #598B43",
"7.	c #326347",
"8.	c #467843",
"9.	c #3F714A",
"0.	c #456369",
"a.	c #687C8B",
"b.	c #57885D",
"c.	c #669C3A",
"d.	c #588D3F",
"e.	c #477942",
"f.	c #41574B",
"g.	c #734E43",
"h.	c #915C27",
"i.	c #47744E",
"j.	c #558843",
"k.	c #689F39",
"l.	c #497C45",
"m.	c #607E97",
"n.	c #4C7A6F",
"o.	c #71A934",
"p.	c #72AA33",
"q.	c #689F3A",
"r.	c #706341",
"s.	c #915B29",
"t.	c #568549",
"u.	c #63993D",
"v.	c #56758D",
"w.	c #46697A",
"x.	c #538643",
"y.	c #71A933",
"z.	c #75693B",
"A.	c #9D5B19",
"B.	c #9E5B19",
"C.	c #905B2A",
"D.	c #63953F",
"E.	c #3F7149",
"F.	c #3D504E",
"G.	c #414B41",
"H.	c #518441",
"I.	c #70A835",
"J.	c #6FA635",
"K.	c #776738",
"L.	c #A05C18",
"M.	c #8D4912",
"N.	c #70340C",
"O.	c #874410",
"P.	c #9F5B18",
"Q.	c #9F5C18",
"R.	c #8E4912",
"S.	c #6F340C",
"T.	c #864411",
"U.	c #9E5B18",
"V.	c #905C2A",
"W.	c #65983C",
"X.	c #659C3C",
"Y.	c #417448",
"Z.	c #334E3E",
"`.	c #474C3B",
" +	c #477945",
".+	c #669D3B",
"++	c #776739",
"@+	c #9C5817",
"#+	c #6A280A",
"$+	c #B71A14",
"%+	c #7D210C",
"&+	c #975215",
"*+	c #9B5717",
"=+	c #6B260A",
"-+	c #76200B",
";+	c #965215",
">+	c #8E5B2E",
",+	c #487849",
"'+	c #4A4A3B",
")+	c #376846",
"!+	c #715D3E",
"~+	c #9B5918",
"{+	c #6F2A0B",
"]+	c #B61A14",
"^+	c #80220D",
"/+	c #985415",
"(+	c #9D5917",
"_+	c #70290B",
":+	c #B81A14",
"<+	c #7A220C",
"[+	c #975416",
"}+	c #89592D",
"|+	c #484B3C",
"1+	c #725538",
"2+	c #945216",
"3+	c #794016",
"4+	c #904E14",
"5+	c #9E5C19",
"6+	c #9C5C1B",
"7+	c #975C23",
"8+	c #8F511D",
"9+	c #753F1E",
"0+	c #884D1F",
"a+	c #83582E",
"b+	c #494B39",
"c+	c #6D523E",
"d+	c #9D5D1A",
"e+	c #876E4D",
"f+	c #9A926A",
"g+	c #79664F",
"h+	c #8A805F",
"i+	c #7D6347",
"j+	c #9E956B",
"k+	c #78654F",
"l+	c #A09A6D",
"m+	c #7C7962",
"n+	c #9F9A6E",
"o+	c #948D67",
"p+	c #975C22",
"q+	c #7C5533",
"r+	c #454D3D",
"s+	c #3D4E3D",
"t+	c #1E2C2F",
"u+	c #443737",
"v+	c #6D4C38",
"w+	c #807F65",
"x+	c #AAA474",
"y+	c #868B72",
"z+	c #C3B97A",
"A+	c #919474",
"B+	c #D1C37B",
"C+	c #8D9274",
"D+	c #C5BA7A",
"E+	c #949774",
"F+	c #B0A973",
"G+	c #94916C",
"H+	c #614B3F",
"I+	c #493939",
"J+	c #1E272D",
"K+	c #3C4D3E",
"L+	c #464C3F",
"M+	c #1F292A",
"N+	c #210907",
"O+	c #373335",
"P+	c #59463E",
"Q+	c #4C5551",
"R+	c #545C55",
"S+	c #384852",
"T+	c #444C4D",
"U+	c #33414C",
"V+	c #434B4C",
"W+	c #37434C",
"X+	c #414A4C",
"Y+	c #3E494A",
"Z+	c #51584F",
"`+	c #595F54",
" @	c #554846",
".@	c #564239",
"+@	c #201012",
"@@	c #1E252A",
"#@	c #474A3D",
"$@	c #1E2B30",
"%@	c #210905",
"&@	c #474540",
"*@	c #985B1F",
"=@	c #8D8764",
"-@	c #B5AE78",
";@	c #939573",
">@	c #C6BA7A",
",@	c #748070",
"'@	c #C2B87A",
")@	c #969874",
"!@	c #B2AC77",
"~@	c #A3A176",
"{@	c #BCB479",
"]@	c #ABA572",
"^@	c #925C2A",
"/@	c #734F3A",
"(@	c #201319",
"_@	c #210906",
":@	c #1F2F30",
"<@	c #204140",
"[@	c #323B43",
"}@	c #201218",
"|@	c #210805",
"1@	c #1E2F33",
"2@	c #495340",
"3@	c #995C1E",
"4@	c #8D5C31",
"5@	c #846341",
"6@	c #856542",
"7@	c #897C59",
"8@	c #815C3C",
"9@	c #857757",
"0@	c #826445",
"a@	c #86704F",
"b@	c #7F674A",
"c@	c #847051",
"d@	c #86623F",
"e@	c #70553A",
"f@	c #1E2A31",
"g@	c #210804",
"h@	c #200E0F",
"i@	c #1E3E40",
"j@	c #1E3639",
"k@	c #200E0E",
"l@	c #1E1B2A",
"m@	c #1A2235",
"n@	c #1E1920",
"o@	c #945B22",
"p@	c #685639",
"q@	c #210B0B",
"r@	c #1E2D31",
"s@	c #1C2B36",
"t@	c #200F14",
"u@	c #1A3745",
"v@	c #8F5A27",
"w@	c #9F5D1A",
"x@	c #61553D",
"y@	c #1D3A40",
"z@	c #1F1B1F",
"A@	c #1F3835",
"B@	c #20403D",
"C@	c #65543E",
"D@	c #7F5433",
"E@	c #8C5727",
"F@	c #955B23",
"G@	c #985B21",
"H@	c #865730",
"I@	c #995C1F",
"J@	c #995B20",
"K@	c #945A24",
"L@	c #8D5826",
"M@	c #84542E",
"N@	c #755539",
"O@	c #405148",
"P@	c #1E232E",
"Q@	c #200B0B",
"R@	c #1F1418",
"S@	c #20403E",
"T@	c #201418",
"U@	c #1F1A20",
"V@	c #1C303F",
"W@	c #271E1F",
"X@	c #2D2A2F",
"Y@	c #374B4B",
"Z@	c #3F5344",
"`@	c #2F514B",
" #	c #415342",
".#	c #3F5345",
"+#	c #2D363C",
"@#	c #292020",
"##	c #20252E",
"$#	c #1E3D40",
"%#	c #1D333B",
"&#	c #1F161A",
"*#	c #1E3335",
"=#	c #20433E",
"-#	c #213D3C",
";#	c #354447",
">#	c #1F3D3E",
",#	c #1F181A",
"'#	c #20322F",
")#	c #1F2C2E",
"!#	c #4A4B3D",
"~#	c #1F3233",
"{#	c #1F181C",
"]#	c #203530",
"^#	c #484C3A",
"/#	c #1F3C3F",
"(#	c #200D0D",
"_#	c #1E272C",
":#	c #1F3636",
"<#	c #210A07",
"[#	c #1F3637",
"}#	c #494A3E",
"|#	c #3A4E44",
"1#	c #1E3237",
"2#	c #1F383A",
"3#	c #201113",
"4#	c #1F1D22",
"5#	c #3B5040",
"6#	c #3D4C49",
"7#	c #213D37",
"8#	c #1F3433",
"9#	c #203A3A",
"0#	c #21342F",
"a#	c #224038",
"                                                                ",
"                          .                                     ",
"                +         @ #           $                       ",
"                % &       * =         - ; >                     ",
"              , ' ) !     ~ { ]       ^ / (                     ",
"                _ : <   [ } | 1 2   3 4 5 6         7 8         ",
"                9 0 a   b c d e f   g h i j       k l m         ",
"      n o       p q r s t c u e v w x y z A     B C D           ",
"    E F G H     I J K L M N O P Q R S T U V w W C X Y           ",
"    Z `  ...      +.@.#.$.%.&.*.=.-.;.>.,.'.).!.~.{.].          ",
"    ^./.(._.      :.<.[.}.|.1.2.2.2.2.2.3.4.2.1.5.6.7.  8.9.    ",
"      0.a.b.c.d.e.f.g.2.2.4.2.2.2.2.2.2.3.4.2.2.h.i.j.k.{.l.    ",
"        m.n.o.X p.q.r.2.2.4.2.2.2.2.2.2.2.4.2.2.s.t.X X u.      ",
"        v.w.x.y.X {.z.2.2.A.2.2.2.2.4.3.3.B.2.3.C.D.X D E.      ",
"        F.G.  H.I.J.K.L.M.N.O.P.2.2.1.Q.R.S.T.U.V.W.X.Y.        ",
"        Z.`.     +.+++@+#+$+%+&+2.2.1.*+=+$+-+;+>+,+            ",
"          '+      )+!+~+{+]+^+/+4.3.2.(+_+:+<+[+}+              ",
"          |+        1+4.2+3+4+5+5+6+1.7+8+9+0+5+a+              ",
"          b+        c+d+e+f+g+h+i+j+k+l+m+n+o+p+q+              ",
"          r+s+    t+u+v+w+x+y+z+A+B+C+D+E+F+G+H+I+J+            ",
"          K+L+  M+N+O+P+Q+R+S+T+U+V+W+X+Y+Z+`+ @.@+@@@          ",
"            #@$@%@+@&@*@=@-@;@>@,@'@)@!@~@{@]@^@/@(@_@:@        ",
"          <@[@}@|@1@2@3@4@5@6@7@8@9@0@a@b@c@d@1.e@f@g@h@i@      ",
"        j@k@l@m@n@    o@4.2.2.1.3.4.2.2.5+2.2.1.p@  q@g@r@      ",
"        s@g@g@t@u@    v@2.2.2.2.2.4.2.2.4.2.2.w@x@y@h@g@z@      ",
"        A@g@g@_@B@    C@D@E@F@G@G@H@I@J@K@L@M@N@O@P@Q@g@R@      ",
"        S@T@N+U@        V@W@X@Y@Z@`@ #.#+#@###    $#%#&#*#      ",
"          =#-#;#        >#N+,#          '#g@)#                  ",
"              !#        ~#%@{#          ]#g@J+                  ",
"              ^#      /#(#g@_#          :#|@<#[#                ",
"              }#|#    1#<#<#2#            3#g@4#                ",
"              5#6#      7#8#              9#0#a#                "};
